<?xml version="1.0" standalone="no"?>
<!DOCTYPE svg PUBLIC "-//W3C//DTD SVG 20010904//EN"
 "http://www.w3.org/TR/2001/REC-SVG-20010904/DTD/svg10.dtd">
<svg version="1.0" xmlns="http://www.w3.org/2000/svg"
 width="300.000000pt" height="192.000000pt" viewBox="0 0 300.000000 192.000000"
 preserveAspectRatio="xMidYMid meet">
<metadata>
Created by potrace 1.10, written by Peter Selinger 2001-2011
</metadata>
<g transform="translate(0.000000,192.000000) scale(0.100000,-0.100000)"
fill="#000000" stroke="none">
<path d="M1155 1902 c-7 -22 -41 -37 -78 -34 -21 1 -78 -51 -106 -98 -22 -36
-29 -100 -11 -100 6 0 10 5 10 10 0 6 8 10 18 10 9 0 30 9 47 20 32 21 45 14
45 -25 0 -17 -2 -17 -10 -5 -7 12 -10 8 -10 -14 0 -21 11 -40 40 -68 23 -21
46 -38 51 -38 6 0 -3 13 -20 29 -17 16 -31 33 -31 37 0 4 10 -2 23 -13 28 -26
61 -43 83 -43 12 0 4 10 -23 30 -41 30 -73 82 -73 117 0 10 14 51 31 91 16 40
28 83 26 95 l-4 22 -8 -23z m-28 -55 c-51 -33 -53 -35 -22 -30 26 4 23 0 -20
-24 -27 -15 -60 -44 -73 -63 l-25 -35 7 35 c8 46 34 80 82 107 41 24 85 32 51
10z"/>
<path d="M1218 1870 c42 -57 67 -127 58 -160 -18 -62 -21 -59 36 -31 72 35
192 37 291 3 37 -13 65 -28 61 -33 -3 -5 3 -9 13 -9 19 0 105 -29 88 -29 -5
-1 -55 6 -110 14 -133 19 -369 6 -280 -15 17 -4 74 -8 128 -9 97 -1 148 -12
251 -52 27 -11 51 -18 53 -16 1 2 -18 16 -45 30 -63 35 -32 34 68 -3 45 -16
98 -30 118 -31 l37 -1 -30 -9 c-28 -9 -71 -6 -120 8 -15 4 -17 2 -9 -6 17 -19
118 -25 168 -11 24 7 59 25 78 41 l33 30 -35 -21 c-58 -33 -190 -21 -190 18 0
17 60 72 78 72 15 0 52 45 52 64 0 15 -5 16 -32 9 -18 -4 -62 -8 -97 -8 -55 0
-66 3 -79 23 -10 15 -24 22 -47 22 -18 0 -66 7 -106 15 -140 28 -229 23 -317
-15 l-43 -19 3 22 c2 14 9 21 20 21 10 -1 16 2 13 6 -9 14 56 30 123 30 36 0
63 2 61 4 -9 10 -166 14 -201 7 -34 -8 -58 0 -58 20 0 10 83 29 137 31 47 1
47 1 8 5 -22 3 -66 -1 -98 -8 -57 -12 -58 -12 -89 17 -28 26 -27 23 10 -26z
m537 -141 c96 -32 176 -36 229 -14 39 17 4 -17 -38 -36 -60 -27 -96 -24 -230
23 -124 43 -204 53 -271 35 -21 -6 -27 -5 -20 2 39 39 193 35 330 -10z m-135
-14 c14 -4 54 -18 90 -31 36 -14 94 -31 130 -39 l65 -15 -70 4 c-65 3 -132 26
-260 87 -20 9 -20 9 0 5 11 -2 31 -7 45 -11z"/>
<path d="M773 1868 c-6 -7 -13 -26 -17 -43 -4 -20 -4 -25 3 -16 7 11 11 5 16
-25 3 -21 8 -52 10 -67 3 -16 16 -51 30 -78 13 -27 21 -49 17 -49 -11 1 -42
47 -58 88 -12 31 -13 33 -9 7 3 -16 19 -48 35 -71 l29 -41 -35 -69 c-19 -38
-47 -79 -62 -91 -15 -13 -22 -23 -16 -23 6 0 18 7 25 16 17 20 85 64 99 64 6
0 4 -12 -5 -30 -20 -38 -19 -53 5 -100 11 -22 18 -40 15 -40 -13 0 -46 86 -43
112 l5 29 -23 -23 c-24 -24 -29 -41 -25 -93 1 -28 3 -29 15 -12 19 25 29 6 20
-36 -6 -28 -8 -30 -15 -12 -6 16 -8 13 -8 -14 -1 -18 -23 -101 -51 -184 -27
-83 -50 -151 -50 -152 0 -1 6 -2 14 -2 9 0 36 53 71 136 75 182 107 233 183
293 36 29 65 60 69 76 4 16 -4 55 -23 110 -25 72 -29 79 -32 52 -2 -18 4 -50
12 -71 26 -66 17 -108 -32 -143 l-27 -19 26 29 c33 37 40 58 30 86 -7 20 -8
19 -14 -11 -4 -18 -20 -46 -37 -62 -16 -17 -36 -39 -44 -51 -13 -19 -14 -18
-22 14 -11 49 -6 90 15 113 24 26 44 65 46 88 1 11 6 22 11 25 6 4 17 17 26
30 l16 24 18 -32 c11 -18 48 -52 84 -76 70 -47 63 -59 -10 -19 l-45 25 34 -30
c19 -16 58 -37 85 -46 28 -9 63 -25 79 -36 15 -11 27 -15 27 -10 0 16 -33 52
-59 65 -37 18 -36 35 3 54 35 16 33 33 -4 32 -10 0 -8 -3 5 -9 18 -8 17 -9 -8
-9 -68 -2 -136 57 -138 119 l0 25 -11 -22 c-10 -21 -27 -29 -53 -23 -5 1 -27
-4 -47 -11 -44 -14 -54 -9 -38 20 9 17 15 19 30 11 23 -12 24 -9 9 42 -13 48
9 98 54 127 18 12 28 21 24 21 -18 0 -68 -43 -82 -71 -9 -16 -20 -29 -25 -29
-18 0 -78 60 -94 95 -19 39 -20 40 -33 23z m21 -25 c3 -10 22 -36 41 -57 39
-44 52 -91 37 -133 l-10 -28 -2 30 c0 17 -7 44 -15 60 -13 30 -13 30 -15 5 -1
-17 -8 -5 -24 40 -13 36 -27 73 -31 83 -4 10 -3 17 3 17 6 0 13 -8 16 -17z
m249 -258 c32 -33 39 -44 24 -39 -12 3 -28 11 -35 17 -14 11 -46 67 -39 67 3
0 25 -20 50 -45z m-159 13 c-4 -7 -21 -33 -37 -58 l-30 -45 46 44 c43 41 45
42 44 18 -1 -14 -5 -23 -9 -21 -4 3 -13 -5 -20 -16 -12 -20 -88 -67 -88 -55 0
19 32 77 60 108 32 37 48 48 34 25z"/>
<path d="M1471 1870 c19 -5 86 -30 148 -55 62 -26 115 -45 117 -43 7 8 -252
108 -276 107 -20 -1 -18 -3 11 -9z"/>
<path d="M1194 1799 c1 -65 3 -74 19 -71 13 2 17 -4 17 -25 0 -52 18 -60 25
-11 8 54 -7 113 -38 152 l-24 29 1 -74z"/>
<path d="M1162 1760 c0 -25 3 -56 7 -70 l7 -25 13 23 c10 18 10 26 0 38 -6 8
-15 29 -19 47 -8 30 -8 29 -8 -13z"/>
<path d="M1140 1691 c0 -18 21 -64 26 -58 9 8 -6 67 -17 67 -5 0 -9 -4 -9 -9z"/>
<path d="M1322 1660 c-36 -8 -49 -17 -39 -26 6 -6 122 8 212 26 32 6 21 8 -50
8 -49 0 -105 -4 -123 -8z"/>
<path d="M1405 1559 c-4 -6 -19 -8 -34 -5 -14 4 2 -9 35 -27 94 -51 156 -100
240 -190 43 -45 67 -66 54 -47 -42 62 -173 184 -240 223 -35 20 -58 37 -51 37
27 0 140 -71 196 -122 32 -29 85 -88 118 -132 110 -144 168 -192 285 -235 34
-13 62 -25 62 -27 0 -8 -98 8 -160 26 -54 16 -160 71 -160 83 0 2 34 -14 76
-35 42 -21 84 -38 93 -38 9 0 -20 18 -64 39 -44 22 -103 59 -130 83 -28 24
-43 33 -35 22 62 -88 106 -136 153 -168 64 -42 94 -56 83 -37 -6 9 3 11 34 9
25 -1 44 -8 47 -16 4 -9 20 -13 53 -11 43 2 54 -2 104 -40 95 -71 149 -93 247
-100 48 -3 85 -3 83 1 -3 5 2 8 10 8 9 0 16 5 16 10 0 13 -71 13 -103 1 -39
-15 -93 6 -108 41 -6 16 -34 48 -61 73 -39 35 -67 50 -136 71 -48 14 -109 37
-137 50 -54 25 -159 127 -235 227 -58 78 -151 158 -227 196 -35 17 -63 29 -63
26 0 -3 -9 -1 -19 5 -14 7 -22 7 -26 -1z m816 -581 c22 -12 46 -32 54 -45 14
-21 12 -20 -27 6 -24 15 -61 35 -83 44 -38 15 -38 16 -11 16 15 1 46 -9 67
-21z"/>
<path d="M1600 1560 l-25 -7 30 -7 c17 -4 58 -14 93 -23 76 -19 90 -12 30 14
-55 25 -96 32 -128 23z"/>
<path d="M2064 1520 c-23 -21 -59 -43 -80 -49 -55 -15 -142 -14 -199 4 -27 8
-52 12 -57 9 -4 -3 -8 -2 -8 3 0 4 -19 14 -42 22 -59 19 -108 30 -108 24 0 -8
204 -103 222 -103 10 0 22 -9 28 -19 5 -11 47 -38 91 -60 85 -43 144 -57 74
-18 -72 40 -105 62 -105 70 0 15 30 6 85 -28 32 -19 74 -38 92 -41 37 -7 126
-1 158 11 16 5 14 1 -8 -19 -52 -48 -143 -59 -227 -27 -63 24 -57 13 12 -22
101 -51 189 -53 242 -4 19 17 23 29 19 54 -4 27 -8 31 -31 27 -115 -16 -139
-16 -175 -1 -20 9 -37 23 -37 31 0 9 3 16 8 16 12 0 75 41 70 45 -2 3 -22 -4
-43 -15 -40 -20 -101 -28 -91 -11 3 5 18 12 33 16 15 3 30 10 33 15 3 5 25 17
50 27 42 17 45 20 40 50 l-5 32 -41 -39z"/>
<path d="M1427 1452 c85 -83 203 -235 203 -260 0 -4 11 -20 25 -37 68 -81 115
-121 172 -147 84 -38 87 -35 17 10 -71 46 -133 114 -194 211 -106 170 -173
241 -283 301 -36 19 -27 7 60 -78z"/>
<path d="M1030 1443 c0 -16 -10 -46 -23 -65 -20 -29 -22 -36 -10 -47 17 -16
15 -18 37 42 10 26 27 54 39 62 21 15 21 15 1 15 -11 0 -25 5 -32 12 -9 9 -12
5 -12 -19z"/>
<path d="M1100 1404 c-27 -17 -70 -76 -70 -95 0 -7 8 -6 23 4 23 15 24 15 19
-8 -4 -23 -2 -24 34 -18 22 3 46 12 55 19 23 20 31 17 19 -6 -6 -12 -30 -25
-55 -32 -37 -10 -41 -14 -27 -24 10 -8 26 -9 46 -3 16 5 31 8 32 6 1 -1 -13
-13 -31 -27 -33 -25 -69 -79 -43 -64 40 22 80 59 93 84 17 32 19 44 8 37 -13
-8 -7 83 5 95 18 18 15 25 -19 37 -42 15 -59 14 -89 -5z m64 -20 c25 -10 19
-22 -8 -17 -13 3 -37 -3 -52 -12 l-29 -17 28 26 c30 28 36 30 61 20z m6 -49
c0 -18 -34 -37 -54 -29 -12 5 -13 10 -5 25 12 23 59 26 59 4z"/>
<path d="M1806 1383 c-3 -4 -6 -10 -6 -14 0 -12 80 -65 125 -83 38 -15 39 -15
15 2 -14 9 -48 36 -76 59 -29 23 -55 39 -58 36z"/>
<path d="M733 1299 c3 -36 2 -70 -2 -75 -4 -5 -23 -49 -41 -99 -42 -112 -85
-201 -116 -238 -14 -16 -23 -40 -23 -55 l1 -27 7 26 c3 14 23 51 44 81 21 30
66 127 101 216 l64 161 -20 38 -20 38 5 -66z"/>
<path d="M1799 1334 c20 -35 36 -50 89 -82 60 -37 116 -52 187 -51 l50 1 -54
9 c-66 11 -162 53 -216 94 -61 47 -69 51 -56 29z"/>
<path d="M1499 1261 c49 -80 104 -232 148 -406 10 -38 19 -61 21 -50 2 18 -34
171 -52 220 -6 16 -6 17 3 5 16 -23 83 -198 97 -255 7 -27 13 -39 13 -26 4
102 -145 465 -224 546 -51 52 -53 42 -6 -34z"/>
<path d="M920 1294 c-13 -13 -20 -24 -15 -24 6 0 5 -4 -1 -8 -16 -10 -60 -100
-69 -139 -3 -18 -11 -35 -16 -38 -5 -4 -9 -12 -9 -18 0 -13 101 137 131 195
32 62 23 75 -21 32z"/>
<path d="M1441 1306 c-1 -10 15 -71 35 -135 19 -64 49 -161 66 -216 17 -55 48
-140 70 -190 22 -49 56 -130 75 -180 19 -49 37 -92 40 -95 17 -18 -16 121 -47
195 -21 50 -44 110 -51 135 -7 25 -18 52 -25 60 -7 8 -31 80 -54 160 -39 139
-108 305 -109 266z"/>
<path d="M1846 1242 c-13 -21 72 -69 202 -113 90 -30 124 -51 191 -113 35 -33
40 -35 26 -13 -10 15 -47 51 -83 79 l-65 52 27 20 c15 12 44 36 64 54 l37 33
-48 -33 c-44 -30 -56 -33 -120 -33 -70 0 -102 11 -219 73 -3 1 -9 -1 -12 -6z"/>
<path d="M1205 1221 c-3 -10 -48 -56 -100 -101 -90 -77 -147 -140 -128 -140
10 0 126 99 190 161 39 38 72 99 53 99 -5 0 -11 -8 -15 -19z"/>
<path d="M1385 1215 c-4 -16 -21 -58 -37 -92 -37 -78 -92 -125 -184 -158 l-69
-24 50 0 c81 -1 175 52 210 119 18 34 48 157 42 172 -2 7 -8 0 -12 -17z"/>
<path d="M1416 1194 c4 -27 7 -77 8 -112 0 -34 4 -58 8 -54 16 16 21 111 8
157 -18 63 -33 69 -24 9z"/>
<path d="M912 1183 c-11 -16 -41 -66 -67 -113 -26 -47 -61 -105 -77 -130 l-29
-45 31 35 c17 19 28 27 24 18 -3 -10 -1 -18 5 -18 11 0 47 59 43 72 -1 4 12
22 28 40 17 18 28 39 25 47 -3 8 1 21 9 30 13 15 39 91 31 91 -2 0 -12 -12
-23 -27z"/>
<path d="M1078 1200 c-26 -16 -116 -143 -123 -175 -7 -26 -3 -24 29 20 20 28
40 50 46 50 14 0 30 19 35 42 2 12 11 33 20 47 19 28 18 30 -7 16z"/>
<path d="M1396 1135 c-27 -153 -103 -221 -239 -213 -58 3 -66 2 -51 -9 10 -7
22 -13 27 -13 4 0 7 -10 5 -22 -2 -15 -10 -23 -23 -23 -16 0 -19 6 -17 25 l4
25 -29 -26 c-15 -14 -58 -47 -96 -73 -44 -31 -79 -65 -101 -101 -42 -64 -66
-79 -120 -73 -23 3 -54 2 -71 -1 l-30 -6 32 -23 c28 -20 38 -22 87 -14 70 11
103 33 127 85 10 23 19 35 20 27 0 -8 5 0 10 19 19 63 149 147 149 96 0 -8 9
-15 20 -15 11 0 20 -6 20 -14 0 -56 -74 -310 -100 -341 -7 -8 -10 -25 -6 -37
8 -31 169 -243 174 -229 4 12 92 -55 92 -70 0 -10 -50 -12 -74 -3 -9 3 -16 14
-16 23 0 9 -28 44 -63 78 -70 70 -127 118 -127 108 0 -4 -6 -3 -12 2 -7 6 -23
9 -35 8 -12 -1 -20 1 -18 5 2 3 -24 3 -58 -1 -83 -9 -146 -35 -153 -64 -7 -27
-42 -45 -69 -34 -11 4 -63 24 -115 45 -116 45 -184 64 -230 63 -24 -1 -12 -5
36 -14 39 -7 115 -31 168 -54 53 -23 123 -49 154 -57 75 -21 237 -31 246 -15
20 31 81 3 171 -78 72 -65 109 -77 191 -62 37 7 55 6 78 -6 16 -8 60 -17 98
-19 38 -2 82 -11 98 -19 39 -20 41 -20 77 15 18 17 47 35 65 41 30 8 170 4
208 -7 9 -2 36 17 65 47 59 59 110 93 126 83 19 -11 165 -4 226 12 32 8 101
33 153 56 104 45 180 68 223 68 16 0 26 4 23 9 -8 12 -96 -6 -170 -33 -34 -13
-98 -37 -143 -54 -79 -30 -163 -45 -190 -35 -7 3 -13 22 -13 42 0 31 5 40 28
51 15 7 44 14 64 16 52 5 112 37 139 75 l22 31 -64 -7 -64 -7 -21 39 c-12 21
-24 52 -28 68 -6 26 -21 62 -58 137 -12 26 -12 25 43 54 58 29 60 38 7 23 -44
-12 -140 2 -193 27 -20 9 -58 36 -84 60 -27 24 -55 44 -63 44 -8 0 -34 13 -59
28 -73 46 -75 47 -54 21 43 -53 72 -82 110 -112 40 -32 35 -19 -14 36 -42 46
-15 30 46 -29 32 -30 103 -86 158 -124 55 -37 111 -83 124 -101 l24 -32 -34
26 c-19 14 -65 35 -104 47 -104 33 -121 40 -179 75 -44 26 -52 29 -49 14 6
-23 39 -44 116 -75 57 -23 59 -24 22 -20 -22 3 -61 17 -87 30 l-48 25 17 -23
c10 -13 30 -29 44 -35 15 -7 30 -19 33 -27 3 -9 1 -12 -4 -9 -15 9 -12 -8 6
-33 9 -13 14 -25 11 -28 -3 -3 -15 11 -27 31 -21 34 -80 76 -80 56 0 -5 34
-41 77 -80 51 -48 81 -70 92 -66 8 3 12 3 8 -1 -4 -4 30 -26 76 -48 71 -35 90
-40 145 -39 89 1 97 18 9 18 -59 1 -82 6 -127 29 -56 29 -150 117 -150 141 0
7 -6 15 -12 18 -9 3 -10 8 -2 16 7 8 24 -4 61 -43 112 -117 238 -171 332 -141
50 16 -8 -40 -64 -62 -66 -25 -175 -7 -264 44 -105 61 -155 118 -224 257 -33
64 -63 116 -69 116 -6 0 -7 -8 -3 -17 18 -44 117 -342 124 -375 17 -72 -6 -38
-46 69 -22 60 -53 157 -69 218 -21 83 -30 104 -34 85 -16 -61 43 -279 101
-373 19 -32 29 -62 30 -90 l0 -42 35 70 c19 38 34 74 34 80 0 10 204 -85 223
-104 6 -6 -4 -7 -25 -2 -61 14 -102 -12 -197 -127 -71 -86 -81 -78 -17 13 45
62 108 125 126 125 6 0 10 4 10 9 0 13 -60 20 -67 8 -3 -6 -1 -7 5 -3 18 11
14 -10 -5 -25 -11 -10 -14 -10 -9 -1 4 6 5 12 3 12 -3 0 -22 -25 -42 -55 -21
-30 -41 -55 -45 -55 -3 0 -12 -16 -19 -35 -14 -40 -8 -38 -121 -39 -47 -1 -95
-5 -106 -9 -21 -7 -22 -4 -26 95 -6 113 -16 161 -60 288 -17 47 -34 103 -40
125 -5 22 -13 47 -17 55 -4 8 -18 50 -31 92 -13 42 -27 75 -31 72 -4 -2 -15 6
-23 18 -21 30 -20 12 5 -85 19 -74 123 -418 134 -442 17 -36 -12 101 -36 172
-16 47 -27 88 -25 90 6 6 65 -159 85 -237 23 -92 37 -242 24 -264 -7 -12 -13
5 -22 65 -8 44 -17 76 -21 69 -4 -6 -1 -43 7 -81 8 -46 10 -77 4 -87 -8 -15
-10 -15 -15 -2 -54 153 -122 295 -185 388 -45 67 -101 165 -101 177 0 5 21
-24 46 -64 26 -39 48 -70 50 -68 3 2 -5 26 -17 53 -12 27 -37 90 -55 139 l-34
90 3 -66 c2 -59 1 -65 -12 -51 -22 22 -25 -1 -5 -40 9 -18 53 -91 97 -163 83
-133 141 -250 171 -343 27 -82 13 -83 -23 -1 -18 41 -52 108 -75 149 -116 203
-147 260 -172 323 -34 84 -52 69 -24 -21 28 -89 39 -109 203 -377 6 -11 15
-22 18 -25 11 -9 29 -49 29 -64 0 -13 -10 -15 -49 -13 -46 3 -54 8 -118 73
-37 39 -59 59 -47 45 54 -68 88 -121 78 -121 -11 0 -174 163 -174 174 0 6 24
-12 53 -39 30 -29 23 -19 -17 22 -38 40 -73 70 -77 67 -10 -6 -66 67 -85 111
-12 30 -13 47 -4 88 6 29 17 62 25 74 14 21 57 194 70 286 14 92 22 31 12 -93
-18 -231 11 -336 129 -473 60 -70 114 -117 114 -101 0 8 -60 84 -98 124 -33
36 -87 146 -100 205 -6 28 -11 114 -11 193 -1 79 -3 147 -6 151 -5 8 12 18 87
49 25 11 59 35 75 52 15 18 34 39 41 46 9 9 12 39 10 96 -3 83 -3 83 -12 33z
m794 -567 c28 -10 67 -44 81 -70 5 -10 -10 -4 -41 17 -27 18 -66 39 -87 45
-55 18 -67 33 -18 24 22 -4 51 -11 65 -16z m-1248 -268 c58 -17 147 -82 204
-151 29 -35 51 -66 49 -68 -3 -2 -42 32 -88 75 -85 81 -144 117 -226 139 -46
13 -46 13 -11 14 19 1 52 -4 72 -9z m-23 -36 c28 -15 51 -28 49 -30 -2 -1 -30
6 -62 17 -33 10 -78 19 -100 19 -30 0 -37 3 -26 10 27 17 85 11 139 -16z
m1191 -20 c-30 -14 -61 -30 -70 -37 -13 -11 -13 -10 0 7 22 28 72 56 100 56
19 0 12 -6 -30 -26z m-1253 3 c11 -11 -9 -27 -33 -27 -33 0 -66 18 -58 32 6
10 80 6 91 -5z"/>
<path d="M862 987 c-16 -29 -37 -59 -46 -66 -15 -13 -15 -16 6 -38 17 -18 23
-37 23 -70 0 -39 -4 -49 -35 -74 -36 -31 -36 -35 3 -20 45 18 72 110 48 168
-11 28 -10 38 12 92 14 34 23 61 22 61 -2 0 -17 -24 -33 -53z"/>
<path d="M2004 943 c21 -42 20 -57 -1 -48 -48 18 51 -61 116 -93 101 -50 189
-56 245 -18 22 14 48 26 60 26 12 0 28 5 36 10 10 6 2 7 -25 2 -63 -11 -255
-4 -234 9 7 4 2 10 -12 14 -13 5 -41 19 -61 31 -21 13 -41 24 -45 24 -5 0 17
-16 47 -35 30 -19 50 -35 44 -35 -19 0 -99 57 -142 101 -42 42 -43 42 -28 12z"/>
<path d="M2070 960 c-23 -6 -21 -9 39 -48 58 -38 129 -67 139 -57 2 2 -11 11
-30 20 -18 10 -53 34 -78 54 -35 29 -50 36 -70 31z"/>
<path d="M953 906 c-21 -19 -43 -49 -50 -67 -12 -34 -12 -34 5 -9 9 14 35 44
58 68 49 50 40 56 -13 8z"/>
<path d="M628 900 c-16 -29 -16 -32 3 -65 11 -19 19 -44 17 -57 -3 -21 -5 -20
-23 12 -10 19 -19 39 -20 45 0 5 -9 11 -19 13 -17 4 -18 0 -13 -34 11 -63 36
-142 36 -114 1 14 -4 42 -10 63 -6 22 -9 41 -6 43 4 4 33 -83 42 -128 5 -24
10 -28 40 -28 18 0 36 3 38 8 7 11 -8 44 -18 41 -18 -5 -38 46 -31 75 4 15 11
24 16 21 10 -6 8 81 -3 91 -2 3 -9 -9 -15 -25 -16 -46 -25 -37 -20 19 3 28 5
50 4 50 -1 0 -9 -14 -18 -30z"/>
<path d="M1786 910 c20 -75 75 -142 150 -182 52 -28 138 -53 128 -37 -3 5 -11
9 -18 9 -28 0 -163 100 -198 146 -76 98 -70 92 -62 64z"/>
<path d="M973 862 c-34 -31 -67 -68 -73 -81 l-12 -24 32 24 c18 13 57 42 88
64 30 22 58 46 60 54 3 9 0 11 -8 6 -7 -4 -15 -3 -19 3 -4 6 -31 -12 -68 -46z"/>
<path d="M726 869 c-19 -15 -26 -29 -25 -52 l1 -32 9 30 c9 31 33 55 56 55 20
0 15 -14 -9 -25 -35 -16 -43 -38 -30 -83 7 -22 20 -43 29 -46 16 -6 16 -6 0
12 -18 20 -24 88 -7 77 6 -3 10 -19 10 -36 0 -49 52 -29 66 26 10 39 -29 95
-65 95 -5 0 -20 -9 -35 -21z m74 -68 c0 -10 -7 -24 -15 -31 -12 -10 -15 -10
-15 3 0 8 -3 22 -6 31 -4 12 0 16 15 16 14 0 21 -6 21 -19z"/>
<path d="M1976 871 c-11 -17 126 -112 141 -98 2 3 -6 8 -18 12 -12 4 -44 27
-70 52 -26 24 -50 40 -53 34z"/>
<path d="M1407 850 c-4 -14 -7 -59 -7 -100 l-1 -75 -44 50 c-25 28 -45 46 -45
40 0 -16 157 -315 165 -315 2 0 -9 35 -24 78 -16 42 -31 97 -34 122 l-6 45 15
-45 c23 -72 136 -351 141 -347 2 3 -21 71 -51 153 -67 184 -76 216 -90 329 -9
65 -14 83 -19 65z"/>
<path d="M1493 840 c24 -83 41 -130 44 -126 6 6 -25 108 -38 126 -10 13 -10
13 -6 0z"/>
<path d="M1554 800 c10 -107 63 -234 131 -315 23 -27 21 -21 -12 50 -20 44
-56 134 -80 200 -41 114 -43 117 -39 65z"/>
<path d="M1691 790 c0 -14 6 -50 13 -80 11 -46 14 -51 20 -32 4 13 3 28 -2 35
-6 7 -14 32 -20 57 -6 27 -10 35 -11 20z"/>
<path d="M831 699 c-16 -13 -33 -18 -50 -14 -14 3 -33 0 -41 -5 -13 -9 -13
-11 0 -20 30 -20 81 -7 108 28 28 36 19 42 -17 11z"/>
<path d="M1087 538 c-16 -79 35 -160 151 -238 75 -51 72 -46 -36 46 -61 53
-92 108 -101 179 l-7 50 -7 -37z"/>
<path d="M1130 528 c0 -19 30 -101 36 -96 1 2 -6 28 -16 58 -11 30 -19 47 -20
38z"/>
<path d="M950 416 c-47 -18 -150 -70 -175 -90 -11 -9 21 4 70 27 50 24 106 50
125 59 42 20 29 22 -20 4z"/>
<path d="M1986 333 c-5 -12 -9 -14 -14 -6 -12 18 -62 -79 -55 -105 5 -21 7
-19 24 13 11 20 16 41 13 47 -5 7 -2 8 6 3 10 -6 12 -4 7 9 -4 10 -3 15 3 11
9 -6 35 33 27 41 -2 3 -8 -3 -11 -13z"/>
<path d="M130 330 c-31 -5 -28 -6 25 -12 33 -3 94 -18 135 -33 191 -69 273
-96 284 -92 6 2 -10 11 -34 19 -25 9 -93 35 -152 57 -128 49 -211 69 -258 61z"/>
<path d="M2775 321 c-81 -23 -349 -125 -338 -128 9 -3 112 29 273 86 63 23
133 41 155 42 35 1 37 2 15 9 -34 11 -37 11 -105 -9z"/>
<path d="M59 294 c-26 -7 -50 -21 -53 -30 -8 -20 17 -50 47 -58 42 -10 239
-37 243 -33 6 6 -102 27 -145 28 -20 1 -47 5 -61 10 -16 5 13 7 80 5 104 -4
166 -19 305 -74 45 -18 64 -19 190 -12 93 5 152 12 175 23 l35 16 -60 -6 c-33
-3 -68 -10 -77 -14 -48 -25 -206 6 -346 67 -213 93 -255 103 -333 78z"/>
<path d="M2835 300 c-22 -5 -98 -33 -168 -64 -70 -31 -151 -62 -180 -70 -76
-22 -163 -30 -171 -17 -4 6 -31 11 -61 11 -30 0 -65 4 -79 10 -14 5 -26 6 -26
1 0 -23 73 -35 239 -38 96 -2 171 0 167 4 -4 4 35 23 86 41 74 27 113 35 188
39 68 3 91 1 80 -6 -8 -6 -30 -11 -49 -11 -42 0 -263 -49 -275 -60 -5 -5 15
-2 45 5 30 8 95 22 144 30 198 33 232 47 214 92 -5 15 -20 24 -46 28 -21 4
-45 8 -53 10 -8 1 -33 -1 -55 -5z"/>
<path d="M1265 253 c155 -147 163 -153 141 -101 -4 9 -33 34 -64 55 -62 43
-93 62 -77 46z"/>
<path d="M385 145 c22 -8 49 -13 60 -13 11 0 -2 6 -30 14 -63 17 -84 16 -30
-1z"/>
</g>
</svg>
